<svg xmlns="http://www.w3.org/2000/svg" width="61.953" height="64.141" viewBox="0 0 61.953 64.141">
  <g id="icon-grid" transform="translate(-3419.6 -1221)">
    <path id="Icon_awesome-heart" data-name="Icon awesome-heart" d="M27.22,4.051a8.052,8.052,0,0,0-10.987.8l-1.16,1.2-1.16-1.2a8.051,8.051,0,0,0-10.987-.8,8.455,8.455,0,0,0-.583,12.241L13.737,28.057a1.846,1.846,0,0,0,2.667,0L27.8,16.293A8.449,8.449,0,0,0,27.22,4.051Z" transform="translate(3419.601 1220.636)" fill="#ff7588"/>
    <path id="Icon_awesome-music" data-name="Icon awesome-music" d="M30.146,1.885A1.883,1.883,0,0,0,27.7.088L8.856,5.652a1.884,1.884,0,0,0-1.319,1.8V22.841a8.145,8.145,0,0,0-1.884-.231C2.531,22.61,0,24.3,0,26.378s2.531,3.768,5.653,3.768,5.653-1.687,5.653-3.768V12.619L26.379,8.2V19.073a8.145,8.145,0,0,0-1.884-.231c-3.122,0-5.653,1.687-5.653,3.768s2.531,3.768,5.653,3.768,5.653-1.687,5.653-3.768V1.885Z" transform="translate(3451.406 1221)" fill="#ff7588"/>
    <path id="Icon_awesome-camera" data-name="Icon awesome-camera" d="M30.147,8.845V25.8a2.827,2.827,0,0,1-2.826,2.826H2.826A2.827,2.827,0,0,1,0,25.8V8.845A2.827,2.827,0,0,1,2.826,6.018H8.008l.724-1.937A2.822,2.822,0,0,1,11.376,2.25h7.39a2.822,2.822,0,0,1,2.644,1.831l.73,1.937h5.181A2.827,2.827,0,0,1,30.147,8.845Zm-8.008,8.479a7.066,7.066,0,1,0-7.066,7.066A7.071,7.071,0,0,0,22.139,17.323Zm-1.884,0a5.181,5.181,0,1,1-5.181-5.181A5.189,5.189,0,0,1,20.255,17.323Z" transform="translate(3419.601 1255.57)" fill="#ff7588"/>
    <path id="Icon_awesome-poo-storm" data-name="Icon awesome-poo-storm" d="M27.59,26.832H21.22l1.91-7.165A1.327,1.327,0,0,0,21.849,18H14.342a1.332,1.332,0,0,0-1.314,1.148L11.262,32.4a1.321,1.321,0,0,0,1.314,1.5h6.547L16.583,44.629a1.327,1.327,0,0,0,2.44.972l9.715-16.781A1.327,1.327,0,0,0,27.59,26.832Z" transform="translate(3447.86 1238.878)" fill="#ff7588"/>
  </g>
</svg>
